<?xml version="1.0" standalone="no"?>
<!DOCTYPE svg PUBLIC "-//W3C//DTD SVG 20010904//EN"
 "http://www.w3.org/TR/2001/REC-SVG-20010904/DTD/svg10.dtd">
<svg version="1.0" xmlns="http://www.w3.org/2000/svg"
 width="1024.000000pt" height="1024.000000pt" viewBox="0 0 1024.000000 1024.000000"
 preserveAspectRatio="xMidYMid meet">
<metadata>
Created by potrace 1.11, written by Peter Selinger 2001-2013
</metadata>
<g transform="translate(0.000000,1024.000000) scale(0.100000,-0.100000)"
fill="#000000" stroke="none">
<path d="M0 9055 l0 -1185 5120 0 5120 0 0 1185 0 1185 -5120 0 -5120 0 0
-1185z"/>
<path d="M3844 6569 c-4 -7 -80 -233 -169 -503 -90 -270 -318 -961 -509 -1535
-190 -574 -346 -1048 -346 -1053 0 -4 168 -8 373 -8 l372 0 133 403 c74 221
304 916 513 1544 208 628 379 1147 379 1153 0 15 -736 14 -746 -1z"/>
<path d="M4760 5040 l0 -1530 380 0 380 0 0 570 0 570 120 0 c113 0 120 -1
134 -22 12 -19 125 -255 371 -773 24 -49 70 -147 103 -217 l61 -128 435 0
c240 0 436 4 436 8 0 4 -4 12 -9 18 -4 5 -63 117 -131 249 -68 132 -142 276
-165 320 -23 44 -91 175 -150 290 -59 116 -127 247 -151 292 -24 45 -44 86
-44 90 0 5 28 25 63 45 76 44 199 156 263 241 55 73 117 198 139 282 22 82 31
292 16 392 -54 368 -318 678 -666 782 -164 49 -204 51 -916 51 l-669 0 0
-1530z m1335 818 c134 -71 197 -208 161 -349 -24 -91 -72 -150 -161 -197 -50
-27 -50 -27 -312 -30 l-263 -3 0 306 0 306 263 -3 c262 -3 262 -3 312 -30z"/>
<path d="M7290 5040 l0 -1530 375 0 375 0 0 545 0 545 288 0 c304 0 403 9 538
51 332 101 588 384 659 724 10 50 16 128 16 210 0 147 -17 249 -62 365 -100
261 -312 464 -579 558 -168 59 -219 62 -949 62 l-661 0 0 -1530z m1332 817
c236 -116 218 -464 -29 -557 -49 -18 -78 -20 -303 -20 l-250 0 0 306 0 305
263 -3 262 -3 57 -28z"/>
<path d="M650 3895 l0 -385 385 0 385 0 0 385 0 385 -385 0 -385 0 0 -385z"/>
<path d="M1790 3895 l0 -385 390 0 390 0 0 385 0 385 -390 0 -390 0 0 -385z"/>
<path d="M0 1150 l0 -1150 5120 0 5120 0 0 1150 0 1150 -5120 0 -5120 0 0
-1150z"/>
</g>
</svg>
