<svg id="svg" version="1.1" width="400" height="400" viewBox="0 0 400 400" xmlns="http://www.w3.org/2000/svg" xmlns:xlink="http://www.w3.org/1999/xlink" ><g id="svgg"><path id="path0" d="M0.000 201.172 L 0.000 309.766 200.000 309.766 L 400.000 309.766 400.000 201.172 L 400.000 92.578 200.000 92.578 L 0.000 92.578 0.000 201.172 M179.688 143.195 C 179.688 143.319,175.672 155.492,170.763 170.245 C 165.855 184.999,156.788 212.319,150.613 230.957 L 139.387 264.844 124.576 264.844 C 115.255 264.844,109.766 264.703,109.766 264.464 C 109.766 264.256,114.513 249.798,120.315 232.335 C 126.117 214.873,135.021 188.018,140.101 172.656 C 145.182 157.295,149.515 144.331,149.732 143.848 L 150.125 142.969 164.906 142.969 C 173.036 142.969,179.688 143.070,179.688 143.195 M239.073 143.367 C 246.459 144.257,251.593 145.946,256.878 149.227 C 279.815 163.465,280.393 198.989,257.894 211.719 C 256.565 212.471,255.475 213.239,255.473 213.425 C 255.469 213.763,260.220 223.084,269.438 240.820 C 272.118 245.977,275.784 253.031,277.585 256.497 C 279.386 259.962,280.859 262.907,280.859 263.040 C 280.859 263.821,246.143 263.272,245.894 262.487 C 245.756 262.050,244.228 258.754,242.500 255.163 C 238.810 247.492,235.955 241.501,234.177 237.695 C 233.475 236.191,231.749 232.548,230.341 229.598 C 228.934 226.649,227.211 223.001,226.512 221.493 L 225.241 218.750 220.433 218.750 L 215.625 218.750 215.625 241.020 L 215.625 263.291 200.684 263.188 L 185.742 263.086 185.642 203.516 C 185.587 170.752,185.625 143.726,185.727 143.457 C 185.965 142.833,233.961 142.752,239.073 143.367 M337.695 143.373 C 369.861 147.050,384.475 182.969,363.739 207.384 C 355.203 217.435,345.487 220.667,323.730 220.692 L 314.453 220.703 314.453 241.992 L 314.453 263.281 299.414 263.281 L 284.375 263.281 284.375 203.125 L 284.375 142.969 309.277 142.970 C 323.799 142.970,335.645 143.138,337.695 143.373 M215.717 181.915 L 215.820 193.555 225.391 193.538 C 240.134 193.512,244.975 190.392,244.458 181.250 C 243.977 172.752,240.215 170.554,225.873 170.392 L 215.613 170.276 215.717 181.915 M314.453 182.031 L 314.453 193.750 322.754 193.743 C 332.140 193.736,335.388 193.261,337.983 191.519 C 345.395 186.540,344.576 175.231,336.527 171.424 L 334.180 170.313 324.316 170.313 L 314.453 170.313 314.453 182.031 M55.859 247.852 L 55.859 263.281 40.430 263.281 L 25.000 263.281 25.000 247.852 L 25.000 232.422 40.430 232.422 L 55.859 232.422 55.859 247.852 M100.688 247.949 L 100.790 263.281 85.356 263.281 L 69.922 263.281 69.922 247.847 L 69.922 232.413 85.254 232.515 L 100.586 232.617 100.688 247.949 " stroke="none" fill="#ffffff" fill-rule="evenodd"></path><path id="path1" d="M0.000 46.289 L 0.000 92.578 200.000 92.578 L 400.000 92.578 400.000 46.289 L 400.000 0.000 200.000 0.000 L 0.000 0.000 0.000 46.289 M143.234 164.355 C 139.418 175.903,130.414 203.068,123.226 224.721 C 116.037 246.374,110.156 264.174,110.156 264.276 C 110.156 264.379,116.693 264.417,124.682 264.360 L 139.208 264.258 147.737 238.477 C 152.428 224.297,161.371 197.314,167.610 178.516 C 173.849 159.717,179.025 144.116,179.113 143.848 C 179.239 143.463,176.187 143.359,164.723 143.359 L 150.174 143.359 143.234 164.355 M185.938 203.101 L 185.938 262.891 200.583 262.891 L 215.228 262.891 215.329 240.723 L 215.430 218.555 220.412 218.445 L 225.394 218.336 227.099 221.961 C 228.037 223.955,231.487 231.211,234.766 238.086 C 240.103 249.277,244.256 257.999,245.972 261.621 L 246.573 262.891 263.543 262.891 L 280.512 262.891 277.999 258.105 C 276.616 255.474,271.311 245.234,266.209 235.352 C 261.107 225.469,256.445 216.460,255.848 215.332 L 254.763 213.281 258.136 211.082 C 285.291 193.382,276.778 152.520,244.260 144.473 C 240.925 143.648,239.985 143.617,213.379 143.467 L 185.938 143.312 185.938 203.101 M284.766 203.101 L 284.766 262.891 299.414 262.891 L 314.063 262.891 314.063 241.642 L 314.063 220.393 326.660 220.203 C 344.924 219.927,351.204 218.108,359.995 210.547 C 377.206 195.745,376.790 166.363,359.172 152.363 C 354.075 148.313,349.503 146.127,342.578 144.432 C 339.411 143.657,338.000 143.612,312.012 143.465 L 284.766 143.311 284.766 203.101 M234.617 169.959 C 248.345 172.349,248.205 191.440,234.443 193.733 C 232.929 193.985,228.397 194.121,223.633 194.056 L 215.430 193.945 215.326 182.231 C 215.269 175.788,215.308 170.295,215.411 170.024 C 215.656 169.386,231.031 169.334,234.617 169.959 M335.742 170.541 C 345.932 174.445,345.802 189.446,335.547 193.166 C 333.620 193.865,332.412 193.945,323.828 193.945 L 314.258 193.945 314.154 182.231 C 314.097 175.788,314.142 170.277,314.255 169.984 C 314.604 169.074,333.168 169.554,335.742 170.541 M25.391 247.852 L 25.391 262.891 40.430 262.891 L 55.469 262.891 55.469 247.852 L 55.469 232.813 40.430 232.813 L 25.391 232.813 25.391 247.852 M69.922 247.852 L 69.922 262.891 85.156 262.891 L 100.391 262.891 100.391 247.852 L 100.391 232.813 85.156 232.813 L 69.922 232.813 69.922 247.852 M0.000 355.078 L 0.000 400.000 200.000 400.000 L 400.000 400.000 400.000 355.078 L 400.000 310.156 200.000 310.156 L 0.000 310.156 0.000 355.078 " stroke="none" fill="#486b8e" fill-rule="evenodd"></path><path id="path2" d="M157.520 143.261 C 161.548 143.325,168.140 143.325,172.168 143.261 C 176.196 143.198,172.900 143.146,164.844 143.146 C 156.787 143.146,153.491 143.198,157.520 143.261 M263.265 154.785 C 264.223 155.806,265.058 156.641,265.120 156.641 C 265.414 156.641,265.104 156.290,263.379 154.671 L 261.523 152.930 263.265 154.785 M215.411 170.024 C 215.308 170.295,215.269 175.788,215.326 182.231 L 215.430 193.945 224.219 193.956 L 233.008 193.967 224.316 193.851 L 215.625 193.735 215.625 181.836 L 215.625 169.937 224.512 169.824 L 233.398 169.711 224.499 169.621 C 217.633 169.552,215.557 169.644,215.411 170.024 M318.652 169.823 C 321.069 169.891,325.024 169.891,327.441 169.823 C 329.858 169.754,327.881 169.698,323.047 169.698 C 318.213 169.698,316.235 169.754,318.652 169.823 M240.234 172.388 C 240.234 172.455,240.806 173.026,241.504 173.657 L 242.773 174.805 241.626 173.535 C 240.557 172.352,240.234 172.086,240.234 172.388 M372.784 181.836 C 372.786 183.340,372.857 183.907,372.941 183.097 C 373.026 182.286,373.024 181.056,372.938 180.362 C 372.852 179.669,372.783 180.332,372.784 181.836 M241.186 190.332 L 240.039 191.602 241.309 190.454 C 242.007 189.823,242.578 189.252,242.578 189.185 C 242.578 188.883,242.256 189.149,241.186 190.332 M318.652 194.042 C 321.069 194.110,325.024 194.110,327.441 194.042 C 329.858 193.973,327.881 193.917,323.047 193.917 C 318.213 193.917,316.235 193.973,318.652 194.042 M215.414 218.848 C 215.311 219.116,215.273 229.180,215.328 241.211 L 215.430 263.086 215.625 240.723 C 215.732 228.423,215.771 218.359,215.710 218.359 C 215.650 218.359,215.516 218.579,215.414 218.848 M218.457 218.629 C 218.833 218.727,219.448 218.727,219.824 218.629 C 220.200 218.530,219.893 218.450,219.141 218.450 C 218.389 218.450,218.081 218.530,218.457 218.629 M222.754 218.629 C 223.130 218.727,223.745 218.727,224.121 218.629 C 224.497 218.530,224.189 218.450,223.438 218.450 C 222.686 218.450,222.378 218.530,222.754 218.629 M33.105 263.183 C 37.241 263.246,44.009 263.246,48.145 263.183 C 52.280 263.120,48.896 263.068,40.625 263.068 C 32.354 263.068,28.970 263.120,33.105 263.183 M77.637 263.183 C 81.772 263.246,88.540 263.246,92.676 263.183 C 96.812 263.120,93.428 263.068,85.156 263.068 C 76.885 263.068,73.501 263.120,77.637 263.183 M193.483 263.183 C 197.525 263.247,204.029 263.247,207.936 263.183 C 211.843 263.119,208.535 263.067,200.586 263.067 C 192.637 263.068,189.440 263.120,193.483 263.183 M255.176 263.183 C 259.849 263.246,267.495 263.246,272.168 263.183 C 276.841 263.121,273.018 263.070,263.672 263.070 C 254.326 263.070,250.503 263.121,255.176 263.183 M292.311 263.183 C 296.353 263.247,302.857 263.247,306.764 263.183 C 310.671 263.119,307.363 263.067,299.414 263.067 C 291.465 263.068,288.268 263.120,292.311 263.183 " stroke="none" fill="#88a4c0" fill-rule="evenodd"></path><path id="path3" d="M284.469 203.004 C 284.417 235.916,284.507 262.926,284.668 263.026 C 284.933 263.189,284.931 222.343,284.664 164.844 C 284.609 152.920,284.521 170.092,284.469 203.004 M244.630 181.836 C 244.634 182.695,244.714 183.001,244.808 182.515 C 244.901 182.029,244.897 181.326,244.800 180.952 C 244.702 180.579,244.625 180.977,244.630 181.836 M264.233 206.348 L 263.086 207.617 264.355 206.470 C 265.054 205.839,265.625 205.268,265.625 205.200 C 265.625 204.899,265.303 205.164,264.233 206.348 M25.265 232.678 C 24.901 233.042,24.928 262.800,25.293 263.026 C 25.454 263.125,25.538 256.368,25.479 248.010 L 25.373 232.813 40.416 232.813 L 55.460 232.813 55.569 247.754 L 55.678 262.695 55.671 247.656 L 55.664 232.617 40.597 232.515 C 32.310 232.459,25.411 232.532,25.265 232.678 M77.441 232.714 C 81.685 232.777,88.628 232.777,92.871 232.714 C 97.114 232.651,93.643 232.600,85.156 232.600 C 76.670 232.600,73.198 232.651,77.441 232.714 M110.102 264.556 C 110.266 264.719,116.893 264.807,124.829 264.751 L 139.258 264.648 124.531 264.453 C 116.431 264.346,109.938 264.392,110.102 264.556 M99.902 310.059 C 154.956 310.113,245.044 310.113,300.098 310.059 C 355.151 310.004,310.107 309.959,200.000 309.959 C 89.893 309.959,44.849 310.004,99.902 310.059 " stroke="none" fill="#b5c3d1" fill-rule="evenodd"></path><path id="path4" d="M185.727 143.457 C 185.625 143.726,185.587 170.752,185.643 203.516 L 185.745 263.086 185.841 203.225 L 185.938 143.365 211.621 143.262 L 237.305 143.158 211.609 143.064 C 191.341 142.989,185.874 143.072,185.727 143.457 M297.196 143.262 C 304.356 143.321,315.957 143.321,322.978 143.261 C 329.998 143.202,324.141 143.153,309.961 143.153 C 295.781 143.153,290.037 143.202,297.196 143.262 M262.500 153.638 C 262.500 153.705,263.071 154.276,263.770 154.907 L 265.039 156.055 263.892 154.785 C 262.822 153.602,262.500 153.336,262.500 153.638 M220.215 170.214 C 222.847 170.281,227.153 170.281,229.785 170.214 C 232.417 170.146,230.264 170.091,225.000 170.091 C 219.736 170.091,217.583 170.146,220.215 170.214 M314.239 170.415 C 314.135 170.686,314.100 176.003,314.160 182.231 L 314.270 193.555 314.362 181.941 L 314.453 170.327 323.730 170.214 L 333.008 170.102 323.718 170.012 C 316.532 169.942,314.386 170.034,314.239 170.415 M274.365 181.836 C 274.366 184.199,274.430 185.116,274.508 183.872 C 274.586 182.629,274.585 180.696,274.506 179.576 C 274.428 178.455,274.364 179.473,274.365 181.836 M343.086 182.031 C 343.086 183.213,343.159 183.696,343.249 183.105 C 343.338 182.515,343.338 181.548,343.249 180.957 C 343.159 180.366,343.086 180.850,343.086 182.031 M361.899 209.082 L 359.961 211.133 362.012 209.194 C 363.917 207.393,364.242 207.031,363.950 207.031 C 363.888 207.031,362.966 207.954,361.899 209.082 M314.242 220.801 C 314.139 221.069,314.102 230.781,314.160 242.383 L 314.265 263.477 314.359 242.096 L 314.453 220.716 324.512 220.605 L 334.570 220.494 324.499 220.403 C 316.735 220.333,314.386 220.424,314.242 220.801 M100.568 248.047 C 100.568 256.533,100.620 260.005,100.683 255.762 C 100.746 251.519,100.746 244.575,100.683 240.332 C 100.620 236.089,100.568 239.561,100.568 248.047 " stroke="none" fill="#d5dfe8" fill-rule="evenodd"></path></g></svg>